<?xml version="1.0" encoding="iso-8859-1"?>
<!-- Generator: Adobe Illustrator 19.0.0, SVG Export Plug-In . SVG Version: 6.00 Build 0)  -->
<svg version="1.1" id="Capa_1" xmlns="http://www.w3.org/2000/svg" xmlns:xlink="http://www.w3.org/1999/xlink" x="0px" y="0px"
	 viewBox="0 0 512 512" style="enable-background:new 0 0 512 512;" xml:space="preserve">
<g>
	<g>
		<path d="M418.167,327.978c32.59-34.806,52.682-81.611,52.682-133.113C470.843,87.236,383.715,0.006,276.2,0
			C168.667,0.006,81.546,87.236,81.546,194.872c0,6.276,0.367,12.449,0.939,18.532c-6.746,13.672-15.9,31.807-23.58,46.973
			c-4.053,7.992-7.68,15.148-10.335,20.357c-1.325,2.608-2.397,4.728-3.162,6.234c-0.38,0.753-0.681,1.35-0.897,1.782l-0.271,0.53
			l-0.241,0.505l-0.036,0.061c-1.825,4.083-2.813,8.612-2.813,13.299c0.006,17.985,14.552,32.584,32.535,32.596h14.552
			l-0.132,58.121l-0.006,0.018c0.012,23.073,18.695,41.787,41.769,41.793l61.109-0.024l20.803,69.89
			c0.681,2.313,2.252,4.24,4.379,5.384c2.132,1.138,4.602,1.385,6.903,0.686l220.998-67.216c4.776-1.451,7.469-6.492,6.023-11.269
			L418.167,327.978z M226.511,491.674l-20.135-67.643c-1.144-3.843-4.649-6.462-8.661-6.457l-67.854,0.03
			c-6.565-0.007-12.425-2.639-16.743-6.945c-4.301-4.325-6.933-10.197-6.938-16.78l-0.006,0.018l0.162-67.174
			c0-2.409-0.934-4.692-2.639-6.403c-1.705-1.711-3.987-2.656-6.403-2.656H73.686c-7.962-0.012-14.456-6.504-14.467-14.527
			c0-2.15,0.446-4.107,1.228-5.884c0.181-0.367,0.65-1.301,1.337-2.638c5.703-11.245,26.151-51.37,38.022-75.485
			c0.753-1.542,1.06-3.252,0.88-4.957c-0.686-6.366-1.066-12.81-1.066-19.316c0-48.858,19.749-93.006,51.713-125.024
			c31.988-32.006,76.075-51.773,124.867-51.779c48.792,0.006,92.874,19.767,124.855,51.779
			c31.976,32.018,51.719,76.166,51.725,125.024c-0.007,48.557-19.568,92.391-51.201,124.367c-2.337,2.355-3.186,5.806-2.223,8.98
			l30.814,101.516L226.511,491.674z"/>
	</g>
</g>
<g>
	<g>
		<path d="M380.204,190.914c0,0-13.076-7.842-15.762-18.708c-2.705-10.866,5.186-23.905,5.186-23.905
			c1.711-2.837,1.681-7.45-0.078-10.263l-12.648-17.093c-1.74-2.024-4.945-3.325-7.812-3.325c-0.681,0-1.343,0.073-1.958,0.228
			c0,0-4.656,1.169-10.438,1.169c-4.517,0-9.715-0.711-13.925-3.252c-9.607-5.782-13.233-20.575-13.233-20.575
			c-0.789-3.216-4.078-6.45-7.312-7.185l-21.02-3.18l-0.505-0.018c-3.21,0-6.987,2.06-8.601,4.759c0,0-7.83,13.052-18.695,15.762
			c-1.596,0.397-3.228,0.566-4.867,0.566c-9.54,0-19.039-5.746-19.039-5.746c-1.392-0.843-3.222-1.265-5.053-1.265
			c-1.891,0-3.789,0.446-5.21,1.337l-17.093,12.648c-2.505,2.162-3.903,6.559-3.102,9.775c0,0,3.705,14.762-2.071,24.357
			c-5.788,9.589-20.568,13.233-20.568,13.233c-3.216,0.789-6.445,4.083-7.185,7.312l-3.168,21.02
			c-0.235,3.306,1.891,7.403,4.734,9.107c0,0,13.057,7.83,15.743,18.695c2.705,10.859-5.18,23.893-5.18,23.893
			c-1.716,2.837-1.686,7.45,0.073,10.263l12.648,17.088c1.752,2.029,4.957,3.331,7.823,3.331c0.674,0,1.337-0.073,1.951-0.228
			c0,0,4.656-1.162,10.432-1.162c4.517,0,9.721,0.711,13.931,3.24c9.589,5.782,13.226,20.58,13.226,20.58
			c0.795,3.216,4.09,6.45,7.312,7.185l21.02,3.168l0.505,0.018c3.198,0,6.975-2.06,8.601-4.759c0,0,7.842-13.045,18.695-15.743
			c1.596-0.397,3.228-0.566,4.867-0.566c9.54,0,19.039,5.752,19.039,5.752c1.392,0.85,3.228,1.265,5.059,1.265
			c1.885,0,3.782-0.446,5.203-1.337l17.081-12.636c2.517-2.156,3.914-6.553,3.114-9.769c0,0-3.692-14.792,2.071-24.381
			c5.788-9.601,20.58-13.233,20.58-13.233c3.222-0.789,6.45-4.078,7.185-7.306l3.174-21.014
			C385.172,196.715,383.047,192.618,380.204,190.914z M364.785,212.477c-7.324,2.632-19.448,8.474-26.271,19.797
			c-6.788,11.293-6.282,24.73-5.186,32.439l-7.553,5.59c-5.318-2.5-13.937-5.686-23.339-5.686c-3.193,0-6.306,0.373-9.221,1.102
			c-12.81,3.18-21.96,13.052-26.621,19.262l-9.293-1.404c-2.639-7.318-8.469-19.442-19.779-26.266
			c-6.426-3.86-14.238-5.818-23.237-5.818c-3.493,0-6.668,0.295-9.185,0.65l-5.602-7.57c3.318-7.035,7.769-19.743,4.583-32.535
			c-3.168-12.817-13.052-21.965-19.262-26.639l1.397-9.293c7.306-2.638,19.43-8.474,26.248-19.774
			c6.806-11.305,6.288-24.742,5.192-32.446l7.558-5.59c5.313,2.493,13.931,5.68,23.333,5.68c3.186,0,6.294-0.373,9.227-1.102
			c12.805-3.186,21.948-13.052,26.621-19.279l9.288,1.404c2.632,7.323,8.457,19.442,19.761,26.242
			c6.421,3.885,14.25,5.848,23.254,5.848c3.499,0,6.668-0.301,9.192-0.65l5.595,7.57c-3.318,7.035-7.769,19.743-4.583,32.542
			c3.168,12.817,13.057,21.977,19.286,26.651L364.785,212.477z"/>
	</g>
</g>
<g>
	<g>
		<path d="M297.564,157.632c-6.903-4.149-14.503-6.131-22.014-6.131c-14.515,0-28.669,7.384-36.71,20.718
			c-12.172,20.231-5.649,46.521,14.588,58.712c6.903,4.162,14.51,6.144,22.019,6.144c14.503,0,28.657-7.391,36.698-20.718
			C324.323,196.13,317.801,169.841,297.564,157.632z M296.679,207.025c-4.529,7.504-12.461,11.986-21.225,11.986
			c-4.451,0-8.842-1.228-12.696-3.548c-11.672-7.029-15.449-22.249-8.432-33.909c4.517-7.499,12.456-11.979,21.23-11.979
			c4.457,0,8.847,1.228,12.678,3.529C299.907,180.146,303.688,195.372,296.679,207.025z"/>
	</g>
</g>
<g>
</g>
<g>
</g>
<g>
</g>
<g>
</g>
<g>
</g>
<g>
</g>
<g>
</g>
<g>
</g>
<g>
</g>
<g>
</g>
<g>
</g>
<g>
</g>
<g>
</g>
<g>
</g>
<g>
</g>
</svg>
