<?xml version="1.0" encoding="utf-8"?>
<!-- Generator: Adobe Illustrator 24.0.3, SVG Export Plug-In . SVG Version: 6.00 Build 0)  -->
<svg version="1.1" id="Ebene_1" xmlns="http://www.w3.org/2000/svg" xmlns:xlink="http://www.w3.org/1999/xlink" x="0px" y="0px"
	 viewBox="0 0 335.1 291.8" style="enable-background:new 0 0 335.1 291.8;" xml:space="preserve">
<style type="text/css">
	.st0{fill:#020203;}
	.st1{fill:#FFFFFF;}
	.st2{fill:none;stroke:#000000;stroke-width:14;stroke-linecap:round;stroke-linejoin:round;stroke-miterlimit:10;}
	.st3{fill:none;stroke:#000000;stroke-width:7;stroke-linecap:round;stroke-linejoin:round;stroke-miterlimit:10;}
	.st4{fill:none;stroke:#000000;stroke-width:14;stroke-miterlimit:10;}
</style>
<path d="M122.2,145.9c0,33.5-27.2,60.7-60.7,60.7c-33.5,0-60.7-27.2-60.7-60.7S28,85.2,61.5,85.2C94.9,85.2,122.2,112.4,122.2,145.9
	z"/>
<path d="M335.1,230.7c0,33.5-27.2,60.7-60.7,60.7s-60.7-27.2-60.7-60.7c0-33.5,27.2-60.7,60.7-60.7S335.1,197.3,335.1,230.7z
	 M227.8,230.7c0,25.7,20.9,46.7,46.7,46.7s46.7-20.9,46.7-46.7S300.2,184,274.4,184S227.8,205,227.8,230.7z"/>
<path d="M334.9,61.6c0,33.5-27.2,60.7-60.7,60.7s-60.7-27.2-60.7-60.7S240.8,1,274.2,1S334.9,28.2,334.9,61.6z M227.6,61.6
	c0,25.7,20.9,46.7,46.7,46.7s46.7-20.9,46.7-46.7S300,15,274.2,15S227.6,35.9,227.6,61.6z"/>
<rect x="106.7" y="96.4" transform="matrix(0.9284 -0.3717 0.3717 0.9284 -26.3837 69.9952)" width="123.4" height="14"/>
<rect x="157.8" y="131" transform="matrix(0.3717 -0.9283 0.9283 0.3717 -75.3125 274.0657)" width="14" height="123.4"/>
</svg>
