<?xml version="1.0" encoding="utf-8"?>
<!-- Generator: Adobe Illustrator 24.0.3, SVG Export Plug-In . SVG Version: 6.00 Build 0)  -->
<svg version="1.1" id="Ebene_1" xmlns="http://www.w3.org/2000/svg" xmlns:xlink="http://www.w3.org/1999/xlink" x="0px" y="0px"
	 viewBox="0 0 335.1 291.8" style="enable-background:new 0 0 335.1 291.8;" xml:space="preserve">
<style type="text/css">
	.st0{fill:#020203;}
	.st1{fill:#FFFFFF;}
	.st2{fill:none;stroke:#000000;stroke-width:14;stroke-linecap:round;stroke-linejoin:round;stroke-miterlimit:10;}
	.st3{fill:none;stroke:#000000;stroke-width:7;stroke-linecap:round;stroke-linejoin:round;stroke-miterlimit:10;}
	.st4{fill:none;stroke:#000000;stroke-width:14;stroke-miterlimit:10;}
</style>
<g>
	<path class="st0" d="M136.2,291c-2.1,0-4.2-1-5.6-2.9c-2.2-3.1-1.4-7.3,1.6-9.5c63.8-45.1,63.9-130.1,63.9-130.9
		c0-15.8-12.8-28.5-28.5-28.5c-15.7,0-28.4,12.7-28.5,28.4c0.1,1.9,0.2,18.8-8,39.5c-7.9,19.8-25.3,47-63.7,64.3
		c-3.4,1.5-7.5,0-9-3.4c-1.5-3.4,0-7.5,3.4-9c64.9-29.3,63.7-88.5,63.6-91l0-0.2c0-23.2,18.9-42.1,42.1-42.1s42.1,18.9,42.1,42.1
		c0,3.7,0.1,92.8-69.7,142.1C138.9,290.6,137.6,291,136.2,291z"/>
	<path class="st0" d="M71.4,113.8c-0.9,0-1.8-0.2-2.7-0.5c-3.5-1.5-5.1-5.5-3.6-8.9c17.5-41.3,57.7-68,102.6-68
		c3.8,0,6.8,3.1,6.8,6.8s-3.1,6.8-6.8,6.8c-39.3,0-74.7,23.4-90,59.7C76.6,112.2,74.1,113.8,71.4,113.8z"/>
	<path class="st0" d="M241.7,269.9c-1.2,0-2.3-0.3-3.4-0.9c-3.3-1.9-4.4-6-2.5-9.3c18.5-32.1,29.6-74,29.6-112.1
		c0-40.2-24.1-75.9-61.5-90.8c-3.5-1.4-5.2-5.4-3.8-8.9c1.4-3.5,5.4-5.2,8.9-3.8c42.6,17,70.1,57.6,70.1,103.4
		c0,40.4-11.7,84.8-31.4,118.9C246.4,268.7,244.1,269.9,241.7,269.9z"/>
	<path class="st0" d="M185.2,291.6c-1.7,0-3.4-0.6-4.7-1.9c-2.7-2.6-2.8-6.9-0.2-9.6c26.3-27.5,47.3-86.9,49.7-123
		c1.4-21.4-4.6-40.5-16.9-53.8c-11.3-12.2-27.2-18.8-45.9-19c-3.8-0.1-6.8-3.1-6.7-6.9c0.1-3.7,3.1-6.7,6.8-6.7c0,0,0.1,0,0.1,0
		c22.6,0.3,41.9,8.4,55.7,23.4c14.9,16.1,22.1,38.8,20.5,63.9c-2.6,39.2-24.6,101.5-53.4,131.5C188.8,290.9,187,291.6,185.2,291.6z"
		/>
	<path class="st0" d="M306.7,154.3c-3.8,0-6.8-3.1-6.8-6.8c0-73-59.4-132.4-132.4-132.4c-3.8,0-6.8-3.1-6.8-6.8s3.1-6.8,6.8-6.8
		c80.5,0,146,65.5,146,146C313.6,151.2,310.5,154.3,306.7,154.3z"/>
	<path class="st0" d="M28.4,154.3c-3.8,0-6.8-3.1-6.8-6.8c0-34.8,12.5-68.6,35.1-95C79.1,26.3,110,8.9,143.8,3.4
		c3.7-0.6,7.2,1.9,7.8,5.6c0.6,3.7-1.9,7.2-5.6,7.8c-30.6,5-58.7,20.8-79,44.5c-20.5,23.9-31.8,54.5-31.8,86.1
		C35.2,151.2,32.1,154.3,28.4,154.3z"/>
	<path class="st0" d="M31.9,188.6c-3.3,0-6.2-2.4-6.7-5.7c-0.6-3.7,1.9-7.2,5.6-7.8c0.3-0.1,13.4-2.4,22.6-13.2
		c8.7-10.2,4.8-29.9,4.7-30.1c-0.8-3.7,1.5-7.3,5.2-8.1c3.7-0.8,7.3,1.5,8.1,5.2c0.2,1.1,5.5,26.5-7.7,41.9
		c-12.7,14.8-30.1,17.7-30.8,17.8C32.6,188.6,32.2,188.6,31.9,188.6z"/>
	<path class="st0" d="M45.6,222.1c-2.8,0-5.4-1.7-6.4-4.5c-1.3-3.5,0.6-7.4,4.1-8.7c0.5-0.2,29.1-10.7,39.4-26.5
		c5.4-8.2,6.8-20.1,8.4-32.7c1.5-12.5,3.1-25.4,8.5-37.7c6.2-14.2,25.1-27.5,27.2-29c3.1-2.1,7.3-1.4,9.5,1.7
		c2.1,3.1,1.4,7.3-1.7,9.5c-4.9,3.4-18.5,14.2-22.5,23.2c-4.6,10.5-6,22.4-7.4,33.9c-1.7,14.2-3.4,27.6-10.5,38.5
		c-12.9,19.7-44.9,31.4-46.2,31.9C47.1,222,46.3,222.1,45.6,222.1z"/>
	<path class="st0" d="M95.8,274.9c-2.9,0-5.6-1.8-6.5-4.7c-1.1-3.6,0.8-7.4,4.4-8.6c0.3-0.1,16.2-5.7,34.8-27.7
		c2.4-2.9,6.7-3.2,9.6-0.8c2.9,2.4,3.2,6.7,0.8,9.6c-21.5,25.4-40.2,31.6-41,31.9C97.2,274.8,96.5,274.9,95.8,274.9z"/>
	<path class="st0" d="M148,225.8c-1.5,0-2.9-0.5-4.2-1.4c-3-2.3-3.5-6.6-1.2-9.5l0,0c0.2-0.3,21.8-28.9,17.2-68.3
		c-0.4-3.7,2.2-7.1,6-7.6c3.8-0.4,7.1,2.2,7.6,6c5.2,45.1-19,76.9-20,78.2C152,224.9,150,225.8,148,225.8z"/>
</g>
</svg>
