<?xml version="1.0" encoding="utf-8"?>
<svg version="1.1" id="Ebene_1" xmlns="http://www.w3.org/2000/svg" xmlns:xlink="http://www.w3.org/1999/xlink" x="0px" y="0px"
	 viewBox="0 0 16 16" style="enable-background:new 0 0 16 16;" xml:space="preserve">
<style type="text/css">
	.st0{font-family:'RobotoSlab-Black';}
	.st1{font-size:14px;}
</style>
<path d="M8.1,8.5H5.7v2.4c0,0.2-0.1,0.3-0.3,0.3H4.7c-0.2,0-0.3-0.1-0.3-0.3V8.5H1.9c-0.2,0-0.3-0.1-0.3-0.3V7.5
	c0-0.2,0.1-0.3,0.3-0.3h2.4V4.7c0-0.2,0.1-0.3,0.3-0.3h0.7c0.2,0,0.3,0.1,0.3,0.3v2.4h2.4c0.2,0,0.3,0.1,0.3,0.3v0.7
	C8.5,8.4,8.3,8.5,8.1,8.5z"/>
<text transform="matrix(1 0 0 1 9.0022 12.9449)" class="st0 st1">I</text>
</svg>
