<?xml version="1.0" encoding="iso-8859-1"?>
<!-- Generator: Adobe Illustrator 19.0.0, SVG Export Plug-In . SVG Version: 6.00 Build 0)  -->
<svg version="1.1" id="Capa_1" xmlns="http://www.w3.org/2000/svg" xmlns:xlink="http://www.w3.org/1999/xlink" x="0px" y="0px"
	 viewBox="0 0 512 512" style="enable-background:new 0 0 512 512;" xml:space="preserve">
<g>
	<g>
		<path d="M418.167,327.978c32.59-34.806,52.682-81.611,52.682-133.113C470.843,87.236,383.715,0.006,276.2,0
			C168.667,0.006,81.546,87.236,81.546,194.872c0,6.276,0.367,12.449,0.939,18.532c-6.746,13.672-15.9,31.807-23.58,46.973
			c-4.053,7.992-7.68,15.148-10.335,20.357c-1.325,2.608-2.397,4.728-3.162,6.234c-0.38,0.753-0.681,1.35-0.897,1.782l-0.271,0.53
			l-0.241,0.505l-0.036,0.061c-1.825,4.083-2.813,8.612-2.813,13.299c0.006,17.985,14.552,32.584,32.535,32.596h14.552
			l-0.132,58.121l-0.006,0.018c0.012,23.073,18.695,41.787,41.769,41.793l61.109-0.024l20.803,69.89
			c0.681,2.313,2.252,4.24,4.379,5.384c2.132,1.138,4.602,1.385,6.903,0.686l220.998-67.216c4.776-1.451,7.469-6.492,6.023-11.269
			L418.167,327.978z M226.511,491.674l-20.135-67.643c-1.144-3.843-4.649-6.462-8.661-6.457l-67.854,0.03
			c-6.565-0.007-12.425-2.639-16.743-6.945c-4.301-4.325-6.933-10.197-6.938-16.78l-0.006,0.018l0.162-67.174
			c0-2.409-0.934-4.692-2.639-6.403c-1.705-1.711-3.987-2.656-6.403-2.656H73.686c-7.962-0.012-14.456-6.504-14.467-14.527
			c0-2.15,0.446-4.107,1.228-5.884c0.181-0.367,0.65-1.301,1.337-2.638c5.703-11.245,26.151-51.37,38.022-75.485
			c0.753-1.542,1.06-3.252,0.88-4.957c-0.686-6.366-1.066-12.81-1.066-19.316c0-48.858,19.749-93.006,51.713-125.024
			c31.988-32.006,76.075-51.773,124.867-51.779c48.792,0.006,92.874,19.767,124.855,51.779
			c31.976,32.018,51.719,76.166,51.725,125.024c-0.007,48.557-19.568,92.391-51.201,124.367c-2.337,2.355-3.186,5.806-2.223,8.98
			l30.814,101.516L226.511,491.674z"/>
	</g>
</g>
<g>
	<g>
		<path d="M321.215,216.771c-13.431,0-25.465,5.896-33.74,15.202l-37.89-21.941c1.505-4.511,2.367-9.323,2.367-14.341
			s-0.861-9.835-2.367-14.341l37.89-21.941c8.276,9.305,20.303,15.202,33.74,15.202c24.941-0.006,45.16-20.207,45.172-45.172
			c-0.012-24.965-20.231-45.166-45.172-45.172c-24.953,0-45.172,20.213-45.172,45.172c0,5.017,0.855,9.829,2.367,14.341
			l-37.902,21.941c-8.269-9.305-20.297-15.196-33.728-15.202c-24.965,0-45.172,20.213-45.172,45.172s20.207,45.172,45.172,45.172
			c13.431,0,25.459-5.896,33.735-15.202l37.896,21.941c-1.512,4.511-2.367,9.323-2.367,14.346c0,24.959,20.218,45.172,45.172,45.172
			c24.941-0.007,45.16-20.207,45.172-45.172C366.375,236.977,346.157,216.776,321.215,216.771z M302.051,110.267
			c4.933-4.914,11.655-7.926,19.171-7.932c7.504,0,14.22,3.017,19.165,7.932c4.914,4.933,7.932,11.655,7.938,19.171
			c-0.007,7.516-3.024,14.233-7.938,19.171c-4.938,4.914-11.66,7.926-19.165,7.932c-7.516-0.006-14.233-3.017-19.171-7.932
			c-4.914-4.933-7.932-11.648-7.932-19.171C294.118,121.916,297.13,115.2,302.051,110.267z M225.945,214.862
			c-4.945,4.914-11.661,7.925-19.165,7.932c-7.523-0.006-14.238-3.017-19.177-7.932c-4.909-4.933-7.926-11.648-7.926-19.171
			c0-7.523,3.017-14.238,7.926-19.171c4.933-4.914,11.655-7.926,19.177-7.932c7.504,0,14.22,3.017,19.165,7.932
			c4.914,4.933,7.932,11.655,7.938,19.171C233.877,203.207,230.86,209.924,225.945,214.862z M340.381,281.107
			c-4.938,4.914-11.66,7.926-19.165,7.932c-7.516-0.007-14.233-3.017-19.171-7.932c-4.914-4.933-7.932-11.648-7.932-19.171
			c0-7.523,3.017-14.238,7.932-19.171c4.933-4.914,11.655-7.926,19.171-7.932c7.504,0,14.22,3.017,19.165,7.932
			c4.914,4.933,7.932,11.655,7.938,19.171C348.312,269.459,345.295,276.174,340.381,281.107z"/>
	</g>
</g>
<g>
</g>
<g>
</g>
<g>
</g>
<g>
</g>
<g>
</g>
<g>
</g>
<g>
</g>
<g>
</g>
<g>
</g>
<g>
</g>
<g>
</g>
<g>
</g>
<g>
</g>
<g>
</g>
<g>
</g>
</svg>
