<?xml version="1.0" encoding="utf-8"?>
<!-- Generator: Adobe Illustrator 24.0.3, SVG Export Plug-In . SVG Version: 6.00 Build 0)  -->
<svg version="1.1" id="Ebene_1" xmlns="http://www.w3.org/2000/svg" xmlns:xlink="http://www.w3.org/1999/xlink" x="0px" y="0px"
	 viewBox="0 0 335.1 291.8" style="enable-background:new 0 0 335.1 291.8;" xml:space="preserve">
<style type="text/css">
	.st0{fill:#020203;}
	.st1{fill:#FFFFFF;}
	.st2{fill:none;stroke:#000000;stroke-width:14;stroke-linecap:round;stroke-linejoin:round;stroke-miterlimit:10;}
	.st3{fill:none;stroke:#000000;stroke-width:7;stroke-linecap:round;stroke-linejoin:round;stroke-miterlimit:10;}
	.st4{fill:none;stroke:#000000;stroke-width:14;stroke-miterlimit:10;}
</style>
<g>
	<path d="M253.3,97.9c0,49-38.8,102.1-53.6,102.1c-5.6,0-10.2-5.1-10.2-10.7c0-3.1,2.6-7.7,7.1-13.8c8.2-11.2,25.5-39.8,25.5-54.1
		c0-5.6-3.1-8.7-10.2-8.7c-26.6,0-36.8-13.8-36.8-32.2c0-20.9,16.3-34.7,37.3-34.7C238,45.8,253.3,69.3,253.3,97.9z M156.8,97.9
		c0,49-38.8,102.1-53.6,102.1c-5.6,0-10.2-5.1-10.2-10.7c0-3.1,2.6-7.7,7.1-13.8c8.2-11.2,25.5-39.8,25.5-54.1
		c0-5.6-3.1-8.7-10.2-8.7c-26.6,0-36.8-13.8-36.8-32.2c0-20.9,16.3-34.7,37.3-34.7C141.5,45.8,156.8,69.3,156.8,97.9z"/>
	<path d="M58.9,291.7c-1.2,0-2.4-0.3-3.5-0.9c-2.2-1.2-3.5-3.5-3.5-6l-0.1-38.5H17.6c-10.5,0-19-8.5-19-19v-209c0-10.5,8.5-19,19-19
		H316c10.5,0,19,8.5,19,19v209c0,10.5-8.5,19-19,19H140.8l-78.5,44.6C61.2,291.4,60,291.7,58.9,291.7z M17.6,13.1c-2.8,0-5,2.2-5,5
		v209c0,2.7,2.3,5,5,5h41.1c1,0,1.9,0.2,2.8,0.6c2.5,1.1,4.2,3.6,4.2,6.4l0.1,33.5l69.7-39.6c1.1-0.6,2.2-0.9,3.5-0.9h177
		c2.7,0,5-2.3,5-5v-209c0-2.8-2.2-5-5-5H17.6z"/>
</g>
</svg>
