<?xml version="1.0" encoding="utf-8"?>
<svg version="1.1" id="Ebene_1" xmlns="http://www.w3.org/2000/svg" xmlns:xlink="http://www.w3.org/1999/xlink" x="0px" y="0px"
	 viewBox="0 0 16 16" style="enable-background:new 0 0 16 16;" xml:space="preserve">
<style type="text/css">
	.st0{font-family:'RobotoSlab-Black';}
	.st1{font-size:14px;}
</style>
<path d="M7,8.5H4.6v2.4c0,0.2-0.1,0.3-0.3,0.3H3.6c-0.2,0-0.3-0.1-0.3-0.3V8.5H0.8c-0.2,0-0.3-0.1-0.3-0.3V7.5
	c0-0.2,0.1-0.3,0.3-0.3h2.4V4.7c0-0.2,0.1-0.3,0.3-0.3h0.7c0.2,0,0.3,0.1,0.3,0.3v2.4H7c0.2,0,0.3,0.1,0.3,0.3v0.7
	C7.4,8.4,7.2,8.5,7,8.5z"/>
<text transform="matrix(1 0 0 1 7.462 13.1468)" class="st0 st1">L</text>
</svg>
