<?xml version="1.0" encoding="utf-8"?>
<!-- Generator: Adobe Illustrator 24.0.3, SVG Export Plug-In . SVG Version: 6.00 Build 0)  -->
<svg version="1.1" id="Ebene_1" xmlns="http://www.w3.org/2000/svg" xmlns:xlink="http://www.w3.org/1999/xlink" x="0px" y="0px"
	 viewBox="0 0 335.1 291.8" style="enable-background:new 0 0 335.1 291.8;" xml:space="preserve">
<style type="text/css">
	.st0{fill:#020203;}
	.st1{fill:#FFFFFF;}
	.st2{fill:none;stroke:#000000;stroke-width:14;stroke-linecap:round;stroke-linejoin:round;stroke-miterlimit:10;}
	.st3{fill:none;stroke:#000000;stroke-width:7;stroke-linecap:round;stroke-linejoin:round;stroke-miterlimit:10;}
	.st4{fill:none;stroke:#000000;stroke-width:14;stroke-miterlimit:10;}
</style>
<g>
	<path d="M60.2,291.7c-1.2,0-2.4-0.3-3.5-0.9c-2.2-1.2-3.5-3.5-3.5-6L53,246.2H18.9c-10.5,0-19-8.5-19-19v-209c0-10.5,8.5-19,19-19
		h298.4c10.5,0,19,8.5,19,19v209c0,10.5-8.5,19-19,19H142.1l-78.5,44.6C62.5,291.4,61.4,291.7,60.2,291.7z M18.9,13.1
		c-2.8,0-5,2.2-5,5v209c0,2.8,2.2,5,5,5H60c1,0,1.9,0.2,2.8,0.6c2.5,1.1,4.2,3.6,4.2,6.4l0.1,33.5l69.7-39.6
		c1.1-0.6,2.2-0.9,3.5-0.9h177c2.8,0,5-2.2,5-5v-209c0-2.8-2.2-5-5-5H18.9z"/>
	<g>
		<path d="M131.1,94.1l-66.2,30.5l66.2,29.6v20.3L38,133.4v-18.1l93.1-41.5V94.1z"/>
		<path d="M187.8,104.5c0,10.4-8.4,19-19.2,19c-10.4,0-19-8.6-19-19c0-10.6,9.1-19,19-19C179.2,85.5,187.8,94.6,187.8,104.5z
			 M187.8,158.6c0,10.1-8.6,19-19.2,19c-10.2,0-19-8.8-19-19c0-10.6,9.1-19,19-19C179.4,139.6,187.8,148.2,187.8,158.6z"/>
		<path d="M206.1,73.8l93.1,41.5v18.1l-93.1,41.1v-20.3l66.2-29.6l-66.2-30.5V73.8z"/>
	</g>
</g>
</svg>
