<?xml version="1.0" encoding="utf-8"?>
<!-- Generator: Adobe Illustrator 24.0.3, SVG Export Plug-In . SVG Version: 6.00 Build 0)  -->
<svg version="1.1" id="Ebene_1" xmlns="http://www.w3.org/2000/svg" xmlns:xlink="http://www.w3.org/1999/xlink" x="0px" y="0px"
	 viewBox="0 0 335.1 291.8" style="enable-background:new 0 0 335.1 291.8;" xml:space="preserve">
<style type="text/css">
	.st0{fill:#020203;}
	.st1{fill:#FFFFFF;}
	.st2{fill:none;stroke:#000000;stroke-width:14;stroke-linecap:round;stroke-linejoin:round;stroke-miterlimit:10;}
	.st3{fill:none;stroke:#000000;stroke-width:7;stroke-linecap:round;stroke-linejoin:round;stroke-miterlimit:10;}
	.st4{fill:none;stroke:#000000;stroke-width:14;stroke-miterlimit:10;}
</style>
<path d="M166.4,121.2c-33.5,0-60.7-27.2-60.7-60.7c0-33.5,27.2-60.7,60.7-60.7S227,27.1,227,60.6C227,94,199.8,121.2,166.4,121.2z
	 M166.4,13.9c-25.7,0-46.7,20.9-46.7,46.7s20.9,46.7,46.7,46.7S213,86.3,213,60.6S192.1,13.9,166.4,13.9z"/>
<path d="M60.8,291.9c-33.5,0-60.7-27.2-60.7-60.7s27.2-60.7,60.7-60.7c33.5,0,60.7,27.2,60.7,60.7S94.2,291.9,60.8,291.9z
	 M60.8,184.5c-25.7,0-46.7,20.9-46.7,46.7s20.9,46.7,46.7,46.7s46.7-20.9,46.7-46.7S86.5,184.5,60.8,184.5z"/>
<path d="M274.5,291.9c-33.5,0-60.7-27.2-60.7-60.7s27.2-60.7,60.7-60.7s60.7,27.2,60.7,60.7S308,291.9,274.5,291.9z M274.5,184.5
	c-25.7,0-46.7,20.9-46.7,46.7s20.9,46.7,46.7,46.7s46.7-20.9,46.7-46.7S300.2,184.5,274.5,184.5z"/>
<rect x="66.4" y="138.7" transform="matrix(0.5262 -0.8503 0.8503 0.5262 -70.0108 165.8248)" width="94.8" height="14"/>
<rect x="213.3" y="98.5" transform="matrix(0.8496 -0.5275 0.5275 0.8496 -43.68 138.1327)" width="14" height="94.3"/>
</svg>
