<?xml version="1.0" encoding="utf-8"?>
<!-- Generator: Adobe Illustrator 24.0.3, SVG Export Plug-In . SVG Version: 6.00 Build 0)  -->
<svg version="1.1" id="Ebene_1" xmlns="http://www.w3.org/2000/svg" xmlns:xlink="http://www.w3.org/1999/xlink" x="0px" y="0px"
	 viewBox="0 0 335.1 291.8" style="enable-background:new 0 0 335.1 291.8;" xml:space="preserve">
<style type="text/css">
	.st0{fill:#020203;}
	.st1{fill:#FFFFFF;}
	.st2{fill:none;stroke:#000000;stroke-width:14;stroke-linecap:round;stroke-linejoin:round;stroke-miterlimit:10;}
	.st3{fill:none;stroke:#000000;stroke-width:7;stroke-linecap:round;stroke-linejoin:round;stroke-miterlimit:10;}
	.st4{fill:none;stroke:#000000;stroke-width:14;stroke-miterlimit:10;}
</style>
<g>
	<path d="M213.4,292.1H19.6c-10.5,0-19-8.5-19-19V103.8L104.6,0h108.8c10.5,0,19,8.5,19,19v254.1
		C232.4,283.5,223.9,292.1,213.4,292.1z M14.6,109.6v163.4c0,2.8,2.2,5,5,5h193.8c2.7,0,5-2.3,5-5V19c0-2.8-2.2-5-5-5h-103
		L14.6,109.6z"/>
	<path d="M83.1,113.9H7.7v-14h75.4c9.6,0,17.4-7.8,17.4-17.4V6.7h14v75.8C114.5,99.8,100.4,113.9,83.1,113.9z"/>
</g>
<path class="st1" d="M254.3,265.8h-46.5c-6.6,0-12-5.4-12-12v-80.5c0-6.6,5.4-12,12-12h46.5c6.6,0,12,5.4,12,12v80.5
	C266.3,260.4,260.9,265.8,254.3,265.8z"/>
<g>
	<path d="M127.8,214.2v18.9h-23.1v-18.9H127.8z"/>
	<path d="M181.8,192.7l12.8-20.3h14.4l-20.8,29.8l23.1,30.9h-15.6L181,210.9l-14.8,22.2h-14.3l22.3-30.5l-22.3-30.2h16.8
		L181.8,192.7z"/>
	<path d="M266.7,172.4h13.1l-37.1,68.4c-5.1,9.4-9.2,13.2-20,13.2H220v-10.4h1.9c4.5,0,7.4-2.4,9.4-5.9l10.9-19.1l-26.9-46.1h15.3
		l18,34L266.7,172.4z"/>
	<path d="M334.4,184.4l-33.2,38.3h35.9v10.4h-49.3v-12.6l32.8-37.7H290v-10.4h44.5V184.4z"/>
</g>
</svg>
