<?xml version="1.0" encoding="utf-8"?>
<!-- Generator: Adobe Illustrator 24.0.3, SVG Export Plug-In . SVG Version: 6.00 Build 0)  -->
<svg version="1.1" id="Ebene_1" xmlns="http://www.w3.org/2000/svg" xmlns:xlink="http://www.w3.org/1999/xlink" x="0px" y="0px"
	 viewBox="0 0 335.1 291.8" style="enable-background:new 0 0 335.1 291.8;" xml:space="preserve">
<style type="text/css">
	.st0{fill:#020203;}
	.st1{fill:#FFFFFF;}
	.st2{fill:none;stroke:#000000;stroke-width:14;stroke-linecap:round;stroke-linejoin:round;stroke-miterlimit:10;}
	.st3{fill:none;stroke:#000000;stroke-width:7;stroke-linecap:round;stroke-linejoin:round;stroke-miterlimit:10;}
	.st4{fill:none;stroke:#000000;stroke-width:14;stroke-miterlimit:10;}
</style>
<path d="M57.6,291.7c-1.2,0-2.4-0.3-3.5-0.9c-2.2-1.2-3.5-3.5-3.5-6l-0.1-38.5H16.3c-10.5,0-19-8.5-19-19v-209c0-10.5,8.5-19,19-19
	h298.4c10.5,0,19,8.5,19,19v209c0,10.5-8.5,19-19,19H139.5L61,290.8C59.9,291.4,58.7,291.7,57.6,291.7z M16.3,13.1c-2.8,0-5,2.2-5,5
	v209c0,2.7,2.3,5,5,5h41.1c1,0,1.9,0.2,2.8,0.6c2.5,1.1,4.2,3.6,4.2,6.4l0.1,33.5l69.7-39.6c1.1-0.6,2.2-0.9,3.5-0.9h177
	c2.8,0,5-2.2,5-5v-209c0-2.8-2.2-5-5-5H16.3z"/>
<g>
	<path d="M241.9,78.4v33.5h-147V78.4H241.9z M241.9,135.2v33.5h-147v-33.5H241.9z"/>
</g>
</svg>
