<?xml version="1.0" encoding="iso-8859-1"?>
<!-- Generator: Adobe Illustrator 19.0.0, SVG Export Plug-In . SVG Version: 6.00 Build 0)  -->
<svg version="1.1" id="Capa_1" xmlns="http://www.w3.org/2000/svg" xmlns:xlink="http://www.w3.org/1999/xlink" x="0px" y="0px"
	 viewBox="0 0 512 512" style="enable-background:new 0 0 512 512;" xml:space="preserve">
<g>
	<g>
		<path d="M418.167,327.978c32.59-34.806,52.682-81.611,52.682-133.113C470.843,87.236,383.715,0.006,276.2,0
			C168.667,0.006,81.546,87.236,81.546,194.872c0,6.276,0.367,12.449,0.939,18.532c-6.746,13.672-15.9,31.807-23.58,46.973
			c-4.053,7.992-7.68,15.148-10.335,20.357c-1.325,2.608-2.397,4.728-3.162,6.234c-0.38,0.753-0.681,1.35-0.897,1.782l-0.271,0.53
			l-0.241,0.505l-0.036,0.061c-1.825,4.083-2.813,8.612-2.813,13.299c0.006,17.985,14.552,32.584,32.535,32.596h14.552
			l-0.132,58.121l-0.006,0.018c0.012,23.073,18.695,41.787,41.769,41.793l61.109-0.024l20.803,69.89
			c0.681,2.313,2.252,4.24,4.379,5.384c2.132,1.138,4.602,1.385,6.903,0.686l220.998-67.216c4.776-1.451,7.469-6.492,6.023-11.269
			L418.167,327.978z M226.511,491.674l-20.135-67.643c-1.144-3.843-4.649-6.462-8.661-6.457l-67.854,0.03
			c-6.565-0.007-12.425-2.639-16.743-6.945c-4.301-4.325-6.933-10.197-6.938-16.78l-0.006,0.018l0.162-67.174
			c0-2.409-0.934-4.692-2.639-6.403c-1.705-1.711-3.987-2.656-6.403-2.656H73.686c-7.962-0.012-14.456-6.504-14.467-14.527
			c0-2.15,0.446-4.107,1.228-5.884c0.181-0.367,0.65-1.301,1.337-2.638c5.703-11.245,26.151-51.37,38.022-75.485
			c0.753-1.542,1.06-3.252,0.88-4.957c-0.686-6.366-1.066-12.81-1.066-19.316c0-48.858,19.749-93.006,51.713-125.024
			c31.988-32.006,76.075-51.773,124.867-51.779c48.792,0.006,92.874,19.767,124.855,51.779
			c31.976,32.018,51.719,76.166,51.725,125.024c-0.007,48.557-19.568,92.391-51.201,124.367c-2.337,2.355-3.186,5.806-2.223,8.98
			l30.814,101.516L226.511,491.674z"/>
	</g>
</g>
<g>
	<g>
		<path d="M330.647,101.704c-14.551-14.167-34.872-23.46-57.681-23.46c-22.815,0-43.131,9.288-57.681,23.46
			c-14.552,14.172-23.61,33.367-23.634,53.61c-0.024,12.967,2.843,23.435,7.269,31.777c6.661,12.533,16.177,19.997,22.622,26.465
			c3.271,3.222,5.788,6.137,7.396,9.016c1.596,2.909,2.487,5.746,2.524,9.925v47.515c0.036,13.31,10.775,24.055,24.092,24.092
			h34.071c13.31-0.036,24.055-10.781,24.085-24.092l0.061-47.503c0.012-2.789,0.446-4.951,1.181-6.957
			c1.277-3.463,3.686-6.685,7.3-10.359c5.342-5.517,13.245-11.57,20.068-20.833c6.848-9.251,12.033-21.99,11.956-39.046
			C354.251,135.065,345.198,115.869,330.647,101.704z M295.649,280c-0.008,1.661-0.658,3.119-1.784,4.258
			c-1.132,1.12-2.59,1.771-4.24,1.777h-34.071c-1.65,0-3.12-0.657-4.246-1.777c-1.12-1.132-1.777-2.596-1.777-4.246v-21.08h46.141
			L295.649,280z M330.954,178.592c-4.607,8.661-12.022,14.684-19.701,22.056c-3.794,3.698-7.631,7.788-10.631,13.033
			c-3.012,5.215-4.951,11.63-4.926,18.816l-0.012,8.366h-46.16v-8.366c0.007-4.771-0.807-9.209-2.259-13.172
			c-2.542-6.975-6.848-12.263-11.155-16.732c-6.541-6.703-13.233-12.052-18.044-18.828c-4.782-6.781-8.269-14.75-8.347-28.452
			c-0.024-14.733,6.734-29.555,18.159-40.661c11.42-11.101,27.236-18.34,45.082-18.34c17.84,0,33.662,7.239,45.082,18.34
			c11.42,11.106,18.177,25.928,18.154,40.661C336.183,165.727,334.039,172.809,330.954,178.592z"/>
	</g>
</g>
<g>
</g>
<g>
</g>
<g>
</g>
<g>
</g>
<g>
</g>
<g>
</g>
<g>
</g>
<g>
</g>
<g>
</g>
<g>
</g>
<g>
</g>
<g>
</g>
<g>
</g>
<g>
</g>
<g>
</g>
</svg>
