<?xml version="1.0" encoding="utf-8"?>
<!-- Generator: Adobe Illustrator 24.0.1, SVG Export Plug-In . SVG Version: 6.00 Build 0)  -->
<svg version="1.1" id="Ebene_1" xmlns="http://www.w3.org/2000/svg" xmlns:xlink="http://www.w3.org/1999/xlink" x="0px" y="0px"
	 viewBox="0 0 16 16" style="enable-background:new 0 0 16 16;" xml:space="preserve">
<style type="text/css">
	.st0{enable-background:new    ;}
</style>
<g class="st0">
	<path d="M0.3,16v-1.8l1.1-0.3V8.6L0.1,8.3V6.5h4.4v7.4l1.1,0.3V16H0.3z M1.3,4.7V2.3h3.2v2.4H1.3z"/>
</g>
<path d="M15.5,8.4h-3v3c0,0.3-0.2,0.4-0.4,0.4h-0.9c-0.3,0-0.4-0.2-0.4-0.4v-3h-3c-0.3,0-0.4-0.2-0.4-0.4V7.1c0-0.3,0.2-0.4,0.4-0.4
	h3v-3c0-0.3,0.2-0.4,0.4-0.4h0.9c0.3,0,0.4,0.2,0.4,0.4v3h3c0.3,0,0.4,0.2,0.4,0.4v0.9C16,8.2,15.8,8.4,15.5,8.4z"/>
</svg>
