<?xml version="1.0" encoding="utf-8"?>
<!-- Generator: Adobe Illustrator 23.1.1, SVG Export Plug-In . SVG Version: 6.00 Build 0)  -->
<svg version="1.1" id="Capa_1" xmlns="http://www.w3.org/2000/svg" xmlns:xlink="http://www.w3.org/1999/xlink" x="0px" y="0px"
	 viewBox="0 0 512 512" style="enable-background:new 0 0 512 512;" xml:space="preserve">
<g>
	<g>
		<path d="M418.2,328c32.6-34.8,52.7-81.6,52.7-133.1C470.8,87.2,383.7,0,276.2,0C168.7,0,81.5,87.2,81.5,194.9
			c0,6.3,0.4,12.4,0.9,18.5c-6.7,13.7-15.9,31.8-23.6,47c-4.1,8-7.7,15.1-10.3,20.4c-1.3,2.6-2.4,4.7-3.2,6.2
			c-0.4,0.8-0.7,1.4-0.9,1.8l-0.3,0.5l-0.2,0.5l0,0.1c-1.8,4.1-2.8,8.6-2.8,13.3c0,18,14.6,32.6,32.5,32.6h14.6l-0.1,58.1l0,0
			c0,23.1,18.7,41.8,41.8,41.8l61.1,0l20.8,69.9c0.7,2.3,2.3,4.2,4.4,5.4c2.1,1.1,4.6,1.4,6.9,0.7l221-67.2c4.8-1.5,7.5-6.5,6-11.3
			L418.2,328z M226.5,491.7L206.4,424c-1.1-3.8-4.6-6.5-8.7-6.5l-67.9,0c-6.6,0-12.4-2.6-16.7-6.9c-4.3-4.3-6.9-10.2-6.9-16.8l0,0
			l0.2-67.2c0-2.4-0.9-4.7-2.6-6.4s-4-2.7-6.4-2.7H73.7c-8,0-14.5-6.5-14.5-14.5c0-2.1,0.4-4.1,1.2-5.9c0.2-0.4,0.7-1.3,1.3-2.6
			c5.7-11.2,26.2-51.4,38-75.5c0.8-1.5,1.1-3.3,0.9-5c-0.7-6.4-1.1-12.8-1.1-19.3c0-48.9,19.7-93,51.7-125
			c32-32,76.1-51.8,124.9-51.8c48.8,0,92.9,19.8,124.9,51.8c32,32,51.7,76.2,51.7,125c0,48.6-19.6,92.4-51.2,124.4
			c-2.3,2.4-3.2,5.8-2.2,9l30.8,101.5L226.5,491.7z"/>
	</g>
</g>
<path d="M367.4,87.9H183.6c-19.2,0-34.8,15.6-34.8,34.8v112.4c0,19.2,15.6,34.8,34.7,34.8v51l73.3-51h110.5
	c19.2,0,34.8-15.6,34.8-34.8V122.7C402.2,103.5,386.6,87.9,367.4,87.9z M387.3,235.1c0,11-9,20-20,20H252.2l-53.8,37.4v-37.4h-14.7
	c-11,0-20-9-20-20V122.7c0-11,9-20,20-20h183.7c11,0,20,9,20,20V235.1z"/>
<path d="M216.6,140.3h117.8v14.8H216.6V140.3z"/>
<path d="M216.6,172h117.8v14.8H216.6V172z"/>
<path d="M216.6,203.7h117.8v14.8H216.6V203.7z"/>
</svg>
