<?xml version="1.0" encoding="utf-8"?>
<!-- Generator: Adobe Illustrator 24.0.3, SVG Export Plug-In . SVG Version: 6.00 Build 0)  -->
<svg version="1.1" id="Ebene_1" xmlns="http://www.w3.org/2000/svg" xmlns:xlink="http://www.w3.org/1999/xlink" x="0px" y="0px"
	 viewBox="0 0 335.1 291.8" style="enable-background:new 0 0 335.1 291.8;" xml:space="preserve">
<style type="text/css">
	.st0{fill:#020203;}
	.st1{fill:#FFFFFF;}
	.st2{fill:none;stroke:#000000;stroke-width:14;stroke-linecap:round;stroke-linejoin:round;stroke-miterlimit:10;}
	.st3{fill:none;stroke:#000000;stroke-width:7;stroke-linecap:round;stroke-linejoin:round;stroke-miterlimit:10;}
	.st4{fill:none;stroke:#000000;stroke-width:14;stroke-miterlimit:10;}
</style>
<path d="M167.6,206.6c-33.5,0-60.7-27.2-60.7-60.7s27.2-60.7,60.7-60.7s60.7,27.2,60.7,60.7S201,206.6,167.6,206.6z M167.6,99.2
	c-25.7,0-46.7,20.9-46.7,46.7s20.9,46.7,46.7,46.7s46.7-20.9,46.7-46.7S193.3,99.2,167.6,99.2z"/>
<circle cx="40.8" cy="250.8" r="40.3"/>
<circle cx="218.8" cy="41.2" r="40.3"/>
<circle cx="65.9" cy="67" r="32.3"/>
<circle cx="301.2" cy="212.6" r="32.3"/>
<circle cx="167.6" cy="242.4" r="22.3"/>
<rect x="28.6" y="208.4" transform="matrix(0.7702 -0.6378 0.6378 0.7702 -118.1526 102.8993)" width="110.2" height="14"/>
<rect x="160.5" y="199.4" transform="matrix(0.9998 -1.811388e-02 1.811388e-02 0.9998 -3.9724 3.0707)" width="14" height="42.9"/>
<rect x="88.6" y="51.1" transform="matrix(0.6163 -0.7875 0.7875 0.6163 -33.5407 109.4497)" width="14" height="76.1"/>
<rect x="173.3" y="62.2" transform="matrix(0.434 -0.9009 0.9009 0.434 53.6978 223.938)" width="63.5" height="14"/>
<rect x="251.9" y="142.9" transform="matrix(0.4537 -0.8911 0.8911 0.4537 -28.2538 334.7198)" width="14" height="95"/>
</svg>
