<?xml version="1.0" encoding="utf-8"?>
<svg version="1.1" id="Ebene_1" xmlns="http://www.w3.org/2000/svg" xmlns:xlink="http://www.w3.org/1999/xlink" x="0px" y="0px"
	 viewBox="0 0 16 16" style="enable-background:new 0 0 16 16;" xml:space="preserve">
<style type="text/css">
	.st0{font-family:'RobotoSlab-Black';}
	.st1{font-size:14px;}
</style>
<path d="M6.8,8.5H4.4V11c0,0.2-0.1,0.3-0.3,0.3H3.4C3.2,11.3,3,11.2,3,11V8.5H0.6c-0.2,0-0.3-0.1-0.3-0.3V7.5c0-0.2,0.1-0.3,0.3-0.3
	H3V4.7c0-0.2,0.1-0.3,0.3-0.3h0.7c0.2,0,0.3,0.1,0.3,0.3v2.4h2.4c0.2,0,0.3,0.1,0.3,0.3v0.7C7.2,8.4,7.1,8.5,6.8,8.5z"/>
<text transform="matrix(1 0 0 1 6.6725 13.1844)" class="st0 st1">B</text>
</svg>
