<?xml version="1.0" encoding="iso-8859-1"?>
<!-- Generator: Adobe Illustrator 19.0.0, SVG Export Plug-In . SVG Version: 6.00 Build 0)  -->
<svg version="1.1" id="Capa_1" xmlns="http://www.w3.org/2000/svg" xmlns:xlink="http://www.w3.org/1999/xlink" x="0px" y="0px"
	 viewBox="0 0 490 490" style="enable-background:new 0 0 490 490;" xml:space="preserve">
<g>
	<path d="M373.17,215.697c-16.355-22.65-47.975-27.754-70.625-11.399l-35.562,25.678c-19.096,13.789-25.719,38.427-17.527,59.393
		l-20.33,13.718c-17.233-17.394-45.033-20.147-65.507-5.364l-35.562,25.678c-22.65,16.355-27.754,47.975-11.399,70.625
		s47.975,27.754,70.625,11.399l35.563-25.678c19.022-13.735,25.662-38.235,17.616-59.148l20.427-13.783
		c17.246,17.229,44.92,19.915,65.321,5.184l35.563-25.678C384.421,269.967,389.524,238.347,373.17,215.697L373.17,215.697z
		 M210.884,362.669l-36.049,26.03c-13.315,9.614-31.904,6.614-41.518-6.701c-9.614-13.315-6.614-31.903,6.701-41.518l36.049-26.03
		c10.901-7.871,25.334-7.282,35.486,0.495l-17.193,11.601c-4.775,3.223-6.028,9.703-2.811,14.478
		c2.016,2.983,5.304,4.591,8.654,4.591c2.006,0,4.032-0.575,5.824-1.782l16.59-11.194
		C224.862,343.729,220.654,355.614,210.884,362.669z M349.81,269.244l-36.049,26.03c-10.826,7.817-25.137,7.295-35.277-0.33
		l14.786-9.977c4.775-3.221,6.027-9.702,2.81-14.477c-3.228-4.765-9.693-6.028-14.478-2.811l-14.335,9.673
		c-2.369-11.165,1.829-23.186,11.678-30.297l36.049-26.03c13.315-9.614,31.904-6.614,41.518,6.701h0
		C366.125,241.041,363.125,259.629,349.81,269.244z"/>
	<path d="M0,0v490h490V0H0z M469.149,20.851v91.025H20.851V20.851H469.149z M20.851,469.149V132.728h448.298v336.421H20.851z"/>
	<rect x="329.31" y="58.843" width="20.851" height="16.702"/>
	<rect x="373.334" y="58.843" width="20.851" height="16.702"/>
	<rect x="417.347" y="58.843" width="20.851" height="16.702"/>
	<rect x="49.002" y="56.766" width="177.294" height="20.851"/>
</g>
<g>
</g>
<g>
</g>
<g>
</g>
<g>
</g>
<g>
</g>
<g>
</g>
<g>
</g>
<g>
</g>
<g>
</g>
<g>
</g>
<g>
</g>
<g>
</g>
<g>
</g>
<g>
</g>
<g>
</g>
</svg>
