<?xml version="1.0" encoding="iso-8859-1"?>
<!-- Generator: Adobe Illustrator 19.0.0, SVG Export Plug-In . SVG Version: 6.00 Build 0)  -->
<svg version="1.1" id="Layer_1" xmlns="http://www.w3.org/2000/svg" xmlns:xlink="http://www.w3.org/1999/xlink" x="0px" y="0px"
	 viewBox="0 0 512.002 512.002" style="enable-background:new 0 0 512.002 512.002;" xml:space="preserve">
<g>
	<g>
		<path d="M117.333,298.668c-5.888,0-10.667,4.779-10.667,10.667v32H64v-32c0-5.888-4.779-10.667-10.667-10.667
			s-10.667,4.779-10.667,10.667v85.333c0,5.888,4.779,10.667,10.667,10.667S64,400.556,64,394.668v-32h42.667v32
			c0,5.888,4.779,10.667,10.667,10.667S128,400.556,128,394.668v-85.333C128,303.447,123.221,298.668,117.333,298.668z"/>
	</g>
</g>
<g>
	<g>
		<path d="M202.667,298.668H160c-5.888,0-10.667,4.779-10.667,10.667s4.779,10.667,10.667,10.667h10.667v74.667
			c0,5.888,4.779,10.667,10.667,10.667S192,400.556,192,394.668v-74.667h10.667c5.888,0,10.667-4.779,10.667-10.667
			S208.555,298.668,202.667,298.668z"/>
	</g>
</g>
<g>
	<g>
		<path d="M288,298.668h-42.667c-5.888,0-10.667,4.779-10.667,10.667s4.779,10.667,10.667,10.667H256v74.667
			c0,5.888,4.779,10.667,10.667,10.667s10.667-4.779,10.667-10.667v-74.667H288c5.888,0,10.667-4.779,10.667-10.667
			S293.888,298.668,288,298.668z"/>
	</g>
</g>
<g>
	<g>
		<path d="M352,298.668h-21.333c-5.888,0-10.667,4.779-10.667,10.667v85.333c0,5.888,4.779,10.667,10.667,10.667
			s10.667-4.779,10.667-10.667v-32H352c17.643,0,32-14.357,32-32C384,313.025,369.643,298.668,352,298.668z M352,341.335h-10.667
			v-21.333H352c5.867,0,10.667,4.779,10.667,10.667S357.867,341.335,352,341.335z"/>
	</g>
</g>
<g>
	<g>
		<path d="M503.915,298.988c-5.781-1.429-11.52,2.027-12.928,7.765l-21.333,85.333c-1.429,5.717,2.027,11.499,7.765,12.928
			c0.875,0.213,1.728,0.32,2.581,0.32c4.8,0,9.152-3.221,10.347-8.085l21.333-85.333
			C513.109,306.199,509.653,300.417,503.915,298.988z"/>
	</g>
</g>
<g>
	<g>
		<path d="M461.248,298.988c-5.803-1.429-11.52,2.027-12.928,7.765l-21.333,85.333c-1.429,5.717,2.027,11.499,7.765,12.928
			c0.875,0.213,1.728,0.32,2.581,0.32c4.8,0,9.152-3.221,10.347-8.085l21.333-85.333
			C470.443,306.199,466.987,300.417,461.248,298.988z"/>
	</g>
</g>
<g>
	<g>
		<circle cx="416" cy="330.668" r="10.667"/>
	</g>
</g>
<g>
	<g>
		<circle cx="416" cy="373.335" r="10.667"/>
	</g>
</g>
<g>
	<g>
		<path d="M373.333,277.335c5.888,0,10.667-4.779,10.667-10.667v-256c0-5.888-4.779-10.667-10.667-10.667H138.667
			c-1.429,0-2.816,0.299-4.117,0.832c-0.619,0.256-1.088,0.725-1.643,1.088c-0.597,0.384-1.28,0.683-1.792,1.195l-128,128
			c-0.491,0.491-0.768,1.152-1.152,1.728c-0.384,0.576-0.875,1.067-1.131,1.707C0.299,135.852,0,137.239,0,138.668v362.667
			c0,5.888,4.779,10.667,10.667,10.667h362.667c5.888,0,10.667-4.779,10.667-10.667v-64c0-5.888-4.779-10.667-10.667-10.667
			c-5.888,0-10.667,4.779-10.667,10.667v53.333H21.333V149.334h117.333c5.888,0,10.667-4.779,10.667-10.667V21.334h213.333v245.333
			C362.667,272.556,367.445,277.335,373.333,277.335z M128,128.001H36.416L128,36.417V128.001z"/>
	</g>
</g>
<g>
</g>
<g>
</g>
<g>
</g>
<g>
</g>
<g>
</g>
<g>
</g>
<g>
</g>
<g>
</g>
<g>
</g>
<g>
</g>
<g>
</g>
<g>
</g>
<g>
</g>
<g>
</g>
<g>
</g>
</svg>
